<svg width="30" height="30" viewBox="0 0 30 30" fill="none" xmlns="http://www.w3.org/2000/svg">
<path d="M10.49 13.6977L10.241 14.6662C10.7249 14.7906 11.2263 14.5387 11.4155 14.0763L10.49 13.6977ZM5.12988 13.6127C5.34679 14.1206 5.93438 14.3565 6.44228 14.1395C6.95018 13.9226 7.18607 13.335 6.96915 12.8271L5.12988 13.6127ZM8.42045 7.31409L8.02769 6.39445L8.42045 7.31409ZM7.20624 7.01712C7.42316 7.52502 8.01074 7.76091 8.51864 7.544C9.02654 7.32708 9.26243 6.73949 9.04552 6.23159L7.20624 7.01712ZM8.1618 4.1624C7.94488 3.6545 7.3573 3.41861 6.84939 3.63553C6.34149 3.85245 6.1056 4.44003 6.32252 4.94793L8.1618 4.1624ZM11.5027 6.20446C11.2969 6.71699 11.5456 7.29927 12.0581 7.50503C12.5707 7.71079 13.153 7.4621 13.3587 6.94958L11.5027 6.20446ZM14.197 4.86156C14.4027 4.34903 14.154 3.76675 13.6415 3.56099C13.129 3.35523 12.5467 3.60392 12.3409 4.11644L14.197 4.86156ZM3.39955 7.93518C2.88703 7.72942 2.30474 7.97811 2.09899 8.49063C1.89323 9.00316 2.14191 9.58544 2.65444 9.7912L3.39955 7.93518ZM4.74246 10.6295C5.25499 10.8352 5.83727 10.5865 6.04303 10.074C6.24878 9.56147 6.0001 8.97919 5.48757 8.77343L4.74246 10.6295ZM12.7655 9.08291C13.1392 9.4895 13.7718 9.51609 14.1784 9.14232C14.585 8.76854 14.6116 8.13594 14.2378 7.72935L12.7655 9.08291ZM26 16.9396C26 21.1209 22.6106 24.511 18.4286 24.511V26.511C23.7153 26.511 28 22.2253 28 16.9396H26ZM18.4286 9.36816C22.6106 9.36816 26 12.7583 26 16.9396H28C28 11.6538 23.7153 7.36816 18.4286 7.36816V9.36816ZM11.4155 14.0763C12.5461 11.3127 15.2626 9.36816 18.4286 9.36816V7.36816C14.4227 7.36816 10.9919 9.82982 9.56441 13.319L11.4155 14.0763ZM9 14.511C9.43192 14.511 9.84715 14.565 10.241 14.6662L10.7389 12.7292C10.1819 12.586 9.59933 12.511 9 12.511V14.511ZM4 19.511C4 16.7493 6.23764 14.511 9 14.511V12.511C5.13289 12.511 2 15.6449 2 19.511H4ZM9 24.511C6.23764 24.511 4 22.2727 4 19.511H2C2 23.3771 5.13289 26.511 9 26.511V24.511ZM18.4286 24.511H9V26.511H18.4286V24.511ZM6.96915 12.8271C6.20994 11.0495 7.03556 8.99294 8.81322 8.23372L8.02769 6.39445C5.23422 7.58749 3.93683 10.8192 5.12988 13.6127L6.96915 12.8271ZM9.04552 6.23159L8.1618 4.1624L6.32252 4.94793L7.20624 7.01712L9.04552 6.23159ZM13.3587 6.94958L14.197 4.86156L12.3409 4.11644L11.5027 6.20446L13.3587 6.94958ZM2.65444 9.7912L4.74246 10.6295L5.48757 8.77343L3.39955 7.93518L2.65444 9.7912ZM8.81322 8.23372C10.2132 7.6358 11.7887 8.02043 12.7655 9.08291L14.2378 7.72935C12.7054 6.06244 10.2314 5.45327 8.02769 6.39445L8.81322 8.23372Z" fill="black"/>
</svg>
