<svg width="30" height="30" viewBox="0 0 30 30" fill="none" xmlns="http://www.w3.org/2000/svg">
<path d="M20.7625 25C22.4375 25.0125 24.05 24.3875 25.2875 23.2625C29.375 19.6875 27.1875 12.5125 21.8 11.8375C19.875 0.162497 3.03751 4.5875 7.02501 15.7M9.10001 16.2125C8.43751 15.875 7.70001 15.7 6.96251 15.7125C1.13751 16.125 1.15001 24.6 6.96251 25.0125M19.775 12.3625C20.425 12.0375 21.125 11.8625 21.85 11.85M12.4625 25L9.96251 27.5M17.4625 25L14.9625 27.5M17.4625 20L14.9625 22.5M12.4625 20L9.96251 22.5" stroke="black" stroke-width="1.5" stroke-miterlimit="10" stroke-linecap="round" stroke-linejoin="round"/>
</svg>
