<svg width="30" height="30" viewBox="0 0 30 30" fill="none" xmlns="http://www.w3.org/2000/svg">
<path d="M11.2763 5.99552C11.7263 4.85739 12.8037 4.05594 14.0614 4.05594C15.7235 4.05594 17.0709 5.45589 17.0709 7.18282C17.0709 8.90974 15.7235 10.3097 14.0614 10.3097H3M17.5301 24.0045C17.98 25.1426 19.0575 25.9441 20.3151 25.9441C21.9773 25.9441 23.3247 24.5441 23.3247 22.8172C23.3247 21.0903 21.9773 19.6903 20.3151 19.6903H9.25375M20.9795 10.6858C21.447 9.5477 22.5665 8.74625 23.8731 8.74625C25.6001 8.74625 27 10.1462 27 11.8731C27 13.6001 25.6001 15 23.8731 15H6.12688" stroke="black" stroke-width="2" stroke-linecap="round" stroke-linejoin="round"/>
</svg>
